<?xml version="1.0" encoding="utf-8"?>
<!-- Generator: Adobe Illustrator 18.0.0, SVG Export Plug-In . SVG Version: 6.00 Build 0)  -->
<!DOCTYPE svg PUBLIC "-//W3C//DTD SVG 1.1//EN" "http://www.w3.org/Graphics/SVG/1.1/DTD/svg11.dtd">
<svg version="1.1" id="Layer_1" xmlns="http://www.w3.org/2000/svg" xmlns:xlink="http://www.w3.org/1999/xlink" x="0px" y="0px"
	 viewBox="0 0 184.3 184.3" enable-background="new 0 0 184.3 184.3" xml:space="preserve">
<g>
	<path d="M35.8,70.5l-0.3,0.8l-0.1-0.1l2.1-4.9l1.4,0.6l0,0.1c-0.9,0-1.6,0.1-2,1l-0.5,1.2l2.7,1.2l0.2-0.5c0.4-0.8,0-1.3-0.7-1.8
		l0-0.1l2.6,1.1l0,0.1c-0.7-0.1-1.4-0.1-1.7,0.6l-0.2,0.6l2.9,1.3l0.3-0.8l0.1,0l-1.2,2.7l-0.1,0l0.3-0.8L35.8,70.5z"/>
	<path d="M38.9,64l-0.4,0.7l-0.1-0.1l0.7-1.2c0.3-0.4,0.5-0.9,0.7-1.3c0.5-0.8,1.4-1.7,2.4-1.1c0.8,0.5,0.7,1.5,0.3,2.2l0,0
		c0.8-0.9,1.2-1.4,2.4-0.9c1.4,0.7,1.6,0.8,1.8,0.4c0.1-0.2,0-0.4,0-0.6l0.1,0c0.1,0.3,0.2,0.6-0.2,1.1c-0.7,1.1-1.5,0.7-2.1,0.4
		c-0.9-0.5-1.7-0.9-2.3,0.1l-0.3,0.5l2.8,1.6l0.4-0.7l0.1,0.1l-1.5,2.6l-0.1-0.1l0.4-0.7L38.9,64z M42,64.2l0.2-0.3
		c0.5-0.9,0-1.3-0.5-1.7c-0.9-0.5-1.4-0.6-1.9,0.2c-0.1,0.1-0.1,0.2-0.2,0.4L42,64.2z"/>
	<path d="M47.3,61.8l0.5-0.6l-3.5-6.2l0.2-0.2l6.9,1.8l0.5-0.6l0.1,0.1l-1.9,2.4L50,58.5l0.5-0.7L48,57.1l-1.3,1.7l1.3,2.3l0.5-0.6
		l0.1,0.1L47.3,61.8L47.3,61.8z M45.2,56.4l1.3,2.3l1.3-1.6L45.2,56.4z"/>
	<path d="M48.1,51l1.5-1.5l5.1,1l0,0l-2.9-3l-0.6,0.6L51.1,48l1.3-1.3l0.1,0.1l-0.6,0.6l4.4,4.5l-0.2,0.2l-6.9-1.3l0,0l3.9,4.1
		l0.6-0.6l0.1,0.1l-1.3,1.3l-0.1-0.1l0.6-0.6l-4.3-4.4L48.1,51L48.1,51z"/>
	<path d="M60.4,48.6l-3.8-5.3l0.5-0.3l3.8,5.3L60.4,48.6z"/>
	<path d="M64.1,46.3c-0.9,0.5-2,0.4-2.6-0.5l0.5-0.3c0.5,0.8,1.3,0.7,2.1,0.2c0.6-0.4,1.1-1.2,0.7-1.9c-0.3-0.6-0.9-0.6-1.5-0.4
		c-1.1,0.3-2.6,0.8-3.4-0.4c-0.6-1,0-2,0.8-2.6c0.7-0.4,1.8-0.8,2.6,0.2l-0.5,0.3c-0.4-0.7-1.2-0.5-1.7-0.1
		c-0.6,0.4-1.1,1.1-0.7,1.8c1,1.6,3.7-1.1,4.8,0.8C66,44.6,65.2,45.6,64.1,46.3z"/>
	<path d="M67.8,36.8l0.6-0.3l5.5,3.9l0,0l-2.2-5.3l0.5-0.2l2.5,6l-0.7,0.3l-5.4-3.9l0,0l2.1,5.2l-0.5,0.2L67.8,36.8z"/>
	<path d="M79.2,39.8c-1.8,0.5-3.2-0.6-3.7-2.5c-0.5-2,0.1-3.5,1.9-4c1.8-0.5,3.2,0.6,3.7,2.5C81.6,37.7,81,39.3,79.2,39.8z
		 M79.1,39.2c1.6-0.4,1.8-2,1.5-3.3c-0.4-1.4-1.4-2.6-2.9-2.2c-1.6,0.4-1.8,2-1.5,3.3C76.5,38.5,77.5,39.7,79.1,39.2z"/>
	<path d="M83.6,32.6l-2.1,0.3l-0.1-0.5l4.7-0.7l0.1,0.5l-2,0.3l0.9,5.9l-0.6,0.1L83.6,32.6z"/>
	<path d="M91.4,37.7l0-6.5l0.6,0l0,2.9l3.5,0l0-2.9l0.6,0l0,6.5h-0.6l0-3.1l-3.5,0l0,3.1L91.4,37.7z"/>
	<path d="M98.2,37.9l0.8-6.5l3.8,0.5l-0.1,0.5L99.5,32l-0.3,2.3l3.1,0.4l-0.1,0.5l-3.1-0.4l-0.3,2.5l3.4,0.4l-0.1,0.5L98.2,37.9z"/>
	<path d="M104.6,38.8l-0.6-0.1l1.5-6.3l2.1,0.5c0.6,0.1,1,0.3,1.4,0.7c0.4,0.4,0.5,0.9,0.3,1.5c-0.2,0.7-0.8,1.1-1.5,1.1l0,0
		c0.8,0.3,0.8,0.9,0.7,1.7c-0.1,1.1-0.3,1.5-0.1,2l-0.7-0.2c-0.1-0.5,0-0.9,0.1-1.4c0.2-1.5,0.2-1.8-1-2l-1.6-0.4L104.6,38.8z
		 M106.6,35.5c0.8,0.2,1.8,0.4,2.1-0.7c0.3-1.2-0.9-1.4-1.5-1.5l-1.3-0.3l-0.5,2.3L106.6,35.5z"/>
	<path d="M110.1,40.2l2.1-6.1l3.7,1.3l-0.2,0.5l-3.1-1.1l-0.8,2.2l3,1l-0.2,0.5l-3-1l-0.8,2.4l3.2,1.1l-0.2,0.5L110.1,40.2z"/>
	<path d="M118.8,43.7l-0.5-0.3l3.1-5.7l1.9,1c0.5,0.3,0.9,0.5,1.2,1c0.3,0.5,0.2,1-0.1,1.5c-0.3,0.6-1,0.8-1.8,0.6l0,0
		c0.7,0.5,0.6,1.1,0.3,1.8c-0.4,1-0.7,1.4-0.6,1.9l-0.6-0.3c0.1-0.5,0.3-0.9,0.4-1.3c0.6-1.4,0.6-1.6-0.4-2.2l-1.4-0.8L118.8,43.7z
		 M121.6,41.1c0.7,0.4,1.7,0.8,2.2-0.1c0.6-1.1-0.5-1.6-1-1.9l-1.2-0.6l-1.1,2L121.6,41.1z"/>
	<path d="M123.8,46.6l3.6-5.5l0.5,0.3l-3.6,5.5L123.8,46.6z"/>
	<path d="M132,48.4l-1.9,2.4c-0.8-0.2-1.4-0.6-2.1-1.1c-1.4-1.1-1.3-2.8-0.1-4.4c1-1.3,2.8-2.1,4.3-1c0.9,0.7,1.4,1.8,0.7,2.8
		l-0.5-0.4c0.4-0.7,0.1-1.5-0.5-1.9c-1.2-1-2.6-0.1-3.4,0.9c-1,1.3-1.2,2.7,0.2,3.7c0.4,0.3,0.9,0.5,1.3,0.7l1.3-1.7l-1.3-1l0.3-0.4
		L132,48.4z"/>
	<path d="M131.4,52.4l4.6-4.6l0.4,0.4l-2,2l2.5,2.5l2-2l0.4,0.4l-4.6,4.6l-0.4-0.4l2.2-2.2l-2.5-2.5l-2.2,2.2L131.4,52.4z"/>
	<path d="M141.3,54.3l-1.3-1.6l0.4-0.3l3,3.7l-0.4,0.3l-1.3-1.6l-4.6,3.8l-0.4-0.4L141.3,54.3z"/>
	<path d="M146.4,60.3l0.3,0.6l-3.1,6l0,0l4.9-2.9l0.3,0.5l-5.6,3.3l-0.4-0.6l3.1-5.9l0,0l-4.9,2.8l-0.3-0.5L146.4,60.3z"/>
	<path d="M145,72c-0.7-1.7,0.1-3.2,2-4c1.9-0.8,3.5-0.4,4.2,1.4c0.7,1.7-0.1,3.2-2,4C147.4,74.1,145.7,73.7,145,72z M145.5,71.8
		c0.6,1.5,2.2,1.5,3.5,1c1.3-0.6,2.4-1.7,1.7-3.2c-0.6-1.5-2.2-1.5-3.5-1C145.9,69.1,144.9,70.3,145.5,71.8z"/>
	<path d="M147.1,77.4l-0.2-0.8l5.8-3.3l0.2,0.6l-5.3,3l0,0l6.2,0.3l0.2,0.7l-5.2,3.4l0,0l6.1-0.1l0.1,0.5l-6.7,0l-0.2-0.8l5.2-3.4
		l0,0L147.1,77.4z"/>
	<path d="M149.6,84.8l-1.9-0.3l-0.1-0.5l1.9,0.1L149.6,84.8z"/>
	<path d="M149.4,89.9l6.5-0.2l0.1,1.6c0.1,1.2-0.2,2.7-1.7,2.7c-1.5,0.1-1.9-1.3-1.9-2.6l0-1l-2.8,0.1L149.4,89.9z M152.8,90.4
		l0,1.4c0,0.9,0.3,1.6,1.4,1.6c1,0,1.3-0.8,1.2-1.7l0-1.4L152.8,90.4z"/>
	<path d="M149.5,95.7l6.5,0.4l0,0.6l-5.9-0.4l-0.2,3.3l-0.5,0L149.5,95.7z"/>
	<path d="M149.1,101.1l6.4,1.1l-0.6,3.8l-0.5-0.1l0.5-3.2l-2.3-0.4l-0.5,3.1l-0.5-0.1l0.5-3.1l-2.5-0.4l-0.6,3.4l-0.5-0.1
		L149.1,101.1z"/>
	<path d="M148.2,106l5.6,4.2l-0.2,0.7l-7,0.7l0.2-0.6l1.9-0.2l0.9-3.1l-1.5-1.1L148.2,106z M149.3,110.8l3.9-0.4L150,108
		L149.3,110.8z"/>
	<path d="M145.5,114c0.4-1,1.4-1.5,2.4-1.1l-0.2,0.6c-0.9-0.4-1.5,0.2-1.8,1c-0.3,0.7-0.2,1.6,0.6,1.9c0.6,0.2,1.1-0.1,1.4-0.5
		c0.7-0.8,1.6-2.2,2.9-1.7c1.1,0.4,1.2,1.6,0.9,2.6c-0.3,0.8-1,1.7-2.2,1.4l0.2-0.6c0.8,0.3,1.2-0.3,1.5-0.9
		c0.2-0.6,0.2-1.5-0.5-1.8c-1.7-0.7-2.3,3-4.4,2.2C145,116.5,145.1,115.2,145.5,114z"/>
	<path d="M144,118l5.8,3l-1.8,3.4l-0.5-0.2l1.5-2.9l-2.1-1.1l-1.5,2.8l-0.5-0.2l1.5-2.8l-2.3-1.2l-1.6,3l-0.5-0.2L144,118z"/>
	<path d="M139.6,125.5l5.2,3.8l-0.3,0.5l-4.8-3.5l-1.9,2.6l-0.4-0.3L139.6,125.5z"/>
	<path d="M136.3,129.8l4.8,4.4l-2.6,2.9l-0.4-0.4l2.2-2.4l-1.7-1.6l-2.1,2.3l-0.4-0.4l2.1-2.3l-1.9-1.7l-2.3,2.5l-0.4-0.4
		L136.3,129.8z"/>
	<path d="M133,133.4l2.4,6.6l-0.5,0.5l-6.3-3.1l0.5-0.4l1.7,0.8l2.4-2.1l-0.7-1.8L133,133.4z M131.3,138l3.5,1.8l-1.4-3.7L131.3,138
		z"/>
	<path d="M126.8,139.4L126.8,139.4l1.8,6l-0.5,0.3l-1.9-6.6l0.5-0.4l5.7,3.9l-0.5,0.4L126.8,139.4z"/>
	<path d="M123.2,141.1l3.2,5.6l-3.3,1.9l-0.3-0.5l2.8-1.6l-1.2-2l-2.7,1.6l-0.3-0.5l2.7-1.6l-1.3-2.2l-3,1.7l-0.3-0.5L123.2,141.1z"
		/>
	<path d="M116.4,144.8l-0.1,7l-0.6,0.2l-4.8-5.1l0.6-0.2l1.3,1.4l3-1.2l0-1.9L116.4,144.8z M113.2,148.5l2.6,2.9l0-3.9L113.2,148.5z
		"/>
	<path d="M107,148.1l1.2,6.4l-0.9,0.2l-3.4-5.1l-1.4,6l-0.9,0.2l-1.2-6.4l0.6-0.1l1.1,5.9l0,0l1.4-6.4l0.6-0.1l3.5,5.4l0,0l-1.1-5.9
		L107,148.1z"/>
	<path d="M98.3,149.4l0.3,6.5l-3.9,0.2l0-0.5l3.3-0.2l-0.1-2.3l-3.1,0.2l0-0.5l3.1-0.2l-0.1-2.5l-3.4,0.2l0-0.5L98.3,149.4z"/>
	<path d="M91,149.4c1,0.1,1.9,0.9,1.8,1.9l-0.6,0c0-1-0.7-1.3-1.6-1.4c-0.7,0-1.6,0.3-1.6,1.2c0,0.6,0.4,1,1,1.2
		c1,0.4,2.6,0.8,2.5,2.2c-0.1,1.1-1.1,1.7-2.2,1.6c-0.9,0-2-0.4-2-1.7l0.6,0c0,0.8,0.7,1,1.4,1.1c0.7,0,1.5-0.3,1.6-1.1
		c0.1-1.8-3.6-1.2-3.5-3.4C88.4,149.7,89.6,149.3,91,149.4z"/>
	<path d="M85.2,148.8c1,0.2,1.8,1,1.6,2.1l-0.6-0.1c0.1-1-0.5-1.4-1.4-1.5c-0.7-0.1-1.6,0.2-1.7,1c-0.1,0.6,0.3,1,0.8,1.3
		c1,0.5,2.5,1.1,2.3,2.5c-0.2,1.1-1.3,1.6-2.3,1.4c-0.8-0.1-1.9-0.6-1.8-1.9l0.6,0.1c-0.1,0.8,0.6,1.1,1.2,1.2
		c0.7,0.1,1.5-0.1,1.7-0.9c0.3-1.8-3.5-1.6-3.1-3.8C82.6,148.8,83.9,148.6,85.2,148.8z"/>
	<path d="M82,148.4l-4.2,5.6l-0.7-0.2l-0.8-6.9l0.6,0.2l0.2,1.9l3.1,0.8l1.1-1.5L82,148.4z M77.2,149.5l0.4,3.9l2.3-3.2L77.2,149.5z
		"/>
	<path d="M69.9,148l1.1-2.8c0.8,0,1.5,0.2,2.3,0.5c1.7,0.6,2.1,2.3,1.3,4.2c-0.6,1.6-2.1,2.8-3.8,2.1c-1-0.4-1.8-1.3-1.5-2.5
		l0.6,0.2c-0.2,0.8,0.3,1.4,1.1,1.7c1.4,0.6,2.5-0.6,3-1.9c0.6-1.5,0.4-2.9-1.2-3.5c-0.5-0.2-1-0.2-1.4-0.3l-0.8,2l1.5,0.6l-0.2,0.5
		L69.9,148z"/>
	<path d="M69.3,144l-3,5.8l-3.4-1.8l0.2-0.5l2.9,1.5l1.1-2.1l-2.8-1.5l0.2-0.5l2.8,1.5l1.2-2.3l-3-1.6l0.2-0.5L69.3,144z"/>
	<path d="M62.6,140.3l-5.9,3.7l-0.5-0.4l1.8-6.8l0.5,0.4l-0.5,1.8l2.6,1.9l1.6-1L62.6,140.3z M57.8,139.6l-1.1,3.8l3.3-2.1
		L57.8,139.6z"/>
	<path d="M52.5,139.9l1.6,1.4l-0.4,0.4l-3.5-3.2l0.4-0.4l1.5,1.4l4-4.4l0.4,0.4L52.5,139.9z"/>
	<path d="M46.9,134.3l1.4,1.6l-0.4,0.4l-3.1-3.6l0.4-0.4l1.3,1.6l4.5-3.9l0.4,0.4L46.9,134.3z"/>
	<path d="M48.9,127.3l-5.4,3.7l-0.3-0.5l2.4-1.6l-2-2.9l-2.4,1.6l-0.3-0.5l5.4-3.7l0.3,0.5l-2.6,1.8l2,2.9l2.6-1.8L48.9,127.3z"/>
	<path d="M45.1,121.6l-5.7,3.1l-1.8-3.4L38,121l1.5,2.9l2.1-1.1l-1.5-2.8l0.5-0.3l1.5,2.8l2.2-1.2l-1.6-3l0.5-0.3L45.1,121.6z"/>
	<path d="M41.4,113.7l-6.1,2.1l-0.7-2.2c-0.3-0.9,0-1.9,0.9-2.2c0.7-0.2,1.4,0.1,1.8,0.7l0,0c-0.1-0.9,0.2-1.6,1.1-1.9
		c0.8-0.3,1.8-0.1,2.3,1.3L41.4,113.7z M37.3,113c-0.2-0.7-0.8-1.3-1.6-1c-0.9,0.3-0.8,1.1-0.6,1.8l0.5,1.3l2.2-0.8L37.3,113z
		 M40.7,113.4l-0.5-1.4c-0.3-1.1-0.8-1.6-1.8-1.3c-1,0.4-0.9,1.3-0.5,2.4l0.4,1L40.7,113.4z"/>
	<path d="M39.4,107.7l-6.3,1.4l-0.8-3.8l0.5-0.1l0.7,3.2l2.3-0.5l-0.7-3.1l0.5-0.1l0.7,3.1l2.5-0.6l-0.7-3.3l0.5-0.1L39.4,107.7z"/>
	<path d="M38.3,102l-6.4,0.8l-0.5-3.8l0.5-0.1l0.4,3.3l2.3-0.3l-0.4-3.1l0.5-0.1l0.4,3.1l2.5-0.3l-0.4-3.4l0.5-0.1L38.3,102z"/>
	<path d="M37.7,96.2l-6.5,0.1l0-1.6c0-1.3,0.3-2.7,1.8-2.7c1.5,0,1.9,1.4,1.9,2.6l0,1l2.8,0L37.7,96.2z M34.3,95.7l0-1.4
		c0-0.9-0.3-1.6-1.3-1.6s-1.3,0.8-1.3,1.7l0,1.4L34.3,95.7z"/>
	<path d="M34.7,80.4l-0.5,1.5l1.4-0.7l0.2,0.6l-1.5,0.3l1.3,0.9l-0.4,0.5l-1-1.2L34,84l-0.6-0.1l0.5-1.5l-1.4,0.7l-0.2-0.6l1.5-0.3
		l-1.3-0.9l0.4-0.5l1.1,1.2l0.1-1.5L34.7,80.4z"/>
	<path d="M42.3,114.2l-0.1-0.4l-1.6-4.5l-1.2-4.7l-0.8-4.7l-0.3-4.8l0-3.9l0.4,0l0,3.8l0.3,4.8l0.7,4.7l1.2,4.6l1.5,4.5l0.1,0.4
		L42.3,114.2z"/>
</g>
</svg>
